<svg width="142" height="70" viewBox="0 0 142 70" fill="none" xmlns="http://www.w3.org/2000/svg">
<g clip-path="url(#clip0_331_466)">
<path d="M50.5147 0C47.4686 0 44.5473 1.21005 42.3934 3.36396L35.364 10.3934C33.2101 12.5473 32 15.4686 32 18.5147C32 24.8579 37.1421 30 43.4853 30C46.5314 30 49.4527 28.7899 51.6066 26.636L56.4689 21.7737C56.469 21.7738 56.4689 21.7736 56.4689 21.7737L70.636 7.6066C71.6647 6.57791 73.0599 6 74.5147 6C76.9503 6 79.0152 7.58741 79.7311 9.78407L84.2022 5.31296C82.1625 2.11834 78.586 0 74.5147 0C71.4686 0 68.5473 1.21005 66.3934 3.36396L47.364 22.3934C46.3353 23.4221 44.9401 24 43.4853 24C40.4558 24 38 21.5442 38 18.5147C38 17.0599 38.5779 15.6647 39.6066 14.636L46.636 7.6066C47.6647 6.57791 49.0599 6 50.5147 6C52.9504 6 55.0152 7.58748 55.7311 9.78421L60.2023 5.31307C58.1626 2.1184 54.5861 0 50.5147 0Z" fill="#1DA1F2"/>
<path d="M71.3639 22.3934C70.3352 23.4221 68.94 24 67.4852 24C65.0499 24 62.9852 22.413 62.2691 20.2167L57.7981 24.6877C59.8379 27.8819 63.4142 30 67.4852 30C70.5313 30 73.4526 28.7899 75.6065 26.636L94.6359 7.6066C95.6646 6.57791 97.0598 6 98.5146 6C101.544 6 104 8.45584 104 11.4853C104 12.9401 103.422 14.3353 102.393 15.364L95.3639 22.3934C94.3352 23.4221 92.94 24 91.4852 24C89.0497 24 86.9849 22.4127 86.2689 20.2162L81.7979 24.6873C83.8376 27.8818 87.414 30 91.4852 30C94.5313 30 97.4526 28.7899 99.6065 26.636L106.636 19.6066C108.79 17.4527 110 14.5314 110 11.4853C110 5.14214 104.858 0 98.5146 0C95.4685 0 92.5472 1.21005 90.3933 3.36396L71.3639 22.3934Z" fill="#1DA1F2"/>
</g>
<path d="M1.824 62V38.928H6.048V57.744H24.864V62H1.824ZM26.3088 62V43.44H30.5008V62H26.3088ZM26.3088 41.584V37.36H30.5008V41.584H26.3088ZM33.9239 62V43.44H48.3559C49.1666 43.44 49.9026 43.6427 50.5639 44.048C51.2466 44.4533 51.7799 44.9867 52.1639 45.648C52.5692 46.3093 52.7719 47.0453 52.7719 47.856V62H48.5799V48.016C48.5799 47.9093 48.5372 47.824 48.4519 47.76C48.3879 47.6747 48.3026 47.632 48.1959 47.632H38.4999C38.3932 47.632 38.2972 47.6747 38.2119 47.76C38.1479 47.824 38.1159 47.9093 38.1159 48.016V62H33.9239ZM55.9125 62V37.36H60.1045V50.608H63.4005L70.0245 43.44H74.5045V44.592L67.1125 52.72L74.4725 60.848V62H70.0245L63.4005 54.832H60.1045V62H55.9125ZM80.5313 62C79.7206 62 78.9846 61.7973 78.3233 61.392C77.6619 60.9867 77.1286 60.4533 76.7233 59.792C76.3179 59.1307 76.1153 58.3947 76.1153 57.584V56.88H80.3073V57.424C80.3073 57.5307 80.3393 57.6267 80.4033 57.712C80.4886 57.776 80.5846 57.808 80.6913 57.808H90.3873C90.4939 57.808 90.5793 57.776 90.6433 57.712C90.7286 57.6267 90.7713 57.5307 90.7713 57.424V55.216C90.7713 55.1093 90.7286 55.024 90.6433 54.96C90.5793 54.8747 90.4939 54.832 90.3873 54.832H80.5313C79.7206 54.832 78.9846 54.6293 78.3233 54.224C77.6619 53.8187 77.1286 53.2853 76.7233 52.624C76.3179 51.9627 76.1153 51.2267 76.1153 50.416V47.856C76.1153 47.0453 76.3179 46.3093 76.7233 45.648C77.1286 44.9867 77.6619 44.4533 78.3233 44.048C78.9846 43.6427 79.7206 43.44 80.5313 43.44H90.5473C91.3793 43.44 92.1259 43.6427 92.7873 44.048C93.4486 44.4533 93.9819 44.9867 94.3873 45.648C94.7926 46.3093 94.9953 47.0453 94.9953 47.856V48.56H90.7713V48.016C90.7713 47.9093 90.7286 47.824 90.6433 47.76C90.5793 47.6747 90.4939 47.632 90.3873 47.632H80.6913C80.5846 47.632 80.4886 47.6747 80.4033 47.76C80.3393 47.824 80.3073 47.9093 80.3073 48.016V50.224C80.3073 50.3307 80.3393 50.4267 80.4033 50.512C80.4886 50.576 80.5846 50.608 80.6913 50.608H90.5473C91.3793 50.608 92.1259 50.8107 92.7873 51.216C93.4486 51.6213 93.9819 52.1547 94.3873 52.816C94.7926 53.4773 94.9953 54.2133 94.9953 55.024V57.584C94.9953 58.3947 94.7926 59.1307 94.3873 59.792C93.9819 60.4533 93.4486 60.9867 92.7873 61.392C92.1259 61.7973 91.3793 62 90.5473 62H80.5313ZM110.912 62V56.208H96.4161V52.272L111.168 38.96H115.104V51.984H118.336V56.208H115.104V62H110.912ZM102.944 51.984H110.912V45.328L102.944 51.984ZM125.418 62C124.608 62 123.861 61.7973 123.178 61.392C122.517 60.9867 121.984 60.4533 121.578 59.792C121.194 59.1307 121.002 58.3947 121.002 57.584V43.44H125.194V57.424C125.194 57.5307 125.226 57.6267 125.29 57.712C125.376 57.776 125.472 57.808 125.578 57.808H135.274C135.381 57.808 135.466 57.776 135.53 57.712C135.616 57.6267 135.658 57.5307 135.658 57.424V43.44H139.85V57.584C139.85 58.3947 139.648 59.1307 139.242 59.792C138.858 60.4533 138.336 60.9867 137.674 61.392C137.013 61.7973 136.266 62 135.434 62H125.418Z" fill="white"/>
<defs>
<clipPath id="clip0_331_466">
<rect width="78" height="30" fill="white" transform="translate(32)"/>
</clipPath>
</defs>
</svg>
